HIERARCHY
ROOT root
{
	OFFSET 0.000000 0.000000 0.000000
	CHANNELS 6 Xposition Yposition Zposition Zrotation Yrotation Xrotation
	JOINT lhip
	{
		OFFSET 0.058581 -0.082280 -0.017664
		CHANNELS 3 Zrotation Yrotation Xrotation
		JOINT lknee
		{
			OFFSET 0.043451 -0.386469 0.008037
			CHANNELS 3 Zrotation Yrotation Xrotation
			JOINT lankle
			{
				OFFSET -0.014790 -0.426874 -0.037428
				CHANNELS 3 Zrotation Yrotation Xrotation
				JOINT ltoe
				{
					OFFSET 0.041054 -0.060286 0.122042
					CHANNELS 3 Zrotation Yrotation Xrotation
					End Site
					{
						OFFSET 0.000000 0.000000 0.000000
					}
				}
			}
		}
	}
	JOINT rhip
	{
		OFFSET -0.060310 -0.090513 -0.013543
		CHANNELS 3 Zrotation Yrotation Xrotation
		JOINT rknee
		{
			OFFSET -0.043257 -0.383688 -0.004843
			CHANNELS 3 Zrotation Yrotation Xrotation
			JOINT rankle
			{
				OFFSET 0.019056 -0.420046 -0.034562
				CHANNELS 3 Zrotation Yrotation Xrotation
				JOINT rtoe
				{
					OFFSET -0.034840 -0.062106 0.130323
					CHANNELS 3 Zrotation Yrotation Xrotation
					End Site
					{
						OFFSET 0.000000 0.000000 0.000000
					}
				}
			}
		}
	}
	JOINT lowerback
	{
		OFFSET 0.004439 0.124404 -0.038385
		CHANNELS 3 Zrotation Yrotation Xrotation
		JOINT upperback
		{
			OFFSET 0.004488 0.137956 0.026820
			CHANNELS 3 Zrotation Yrotation Xrotation
			JOINT chest
			{
				OFFSET -0.002265 0.056032 0.002855
				CHANNELS 3 Zrotation Yrotation Xrotation
				JOINT lowerneck
				{
					OFFSET -0.013390 0.211636 -0.033468
					CHANNELS 3 Zrotation Yrotation Xrotation
					JOINT upperneck
					{
						OFFSET 0.010113 0.088937 0.050410
						CHANNELS 3 Zrotation Yrotation Xrotation
						End Site
						{
							OFFSET 0.000000 0.000000 0.000000
						}
					}
				}
				JOINT lclavicle
				{
					OFFSET 0.071702 0.114000 -0.018898
					CHANNELS 3 Zrotation Yrotation Xrotation
					JOINT lshoulder
					{
						OFFSET 0.122921 0.045205 -0.019046
						CHANNELS 3 Zrotation Yrotation Xrotation
						JOINT lelbow
						{
							OFFSET 0.255332 -0.015649 -0.022946
							CHANNELS 3 Zrotation Yrotation Xrotation
							JOINT lwrist
							{
								OFFSET 0.265709 0.012698 -0.007375
								CHANNELS 3 Zrotation Yrotation Xrotation
								End Site
								{
									OFFSET 0.000000 0.000000 0.000000
								}
							}
						}
					}
				}
				JOINT rclavicle
				{
					OFFSET -0.082954 0.112472 -0.023707
					CHANNELS 3 Zrotation Yrotation Xrotation
					JOINT rshoulder
					{
						OFFSET -0.113228 0.046853 -0.008472
						CHANNELS 3 Zrotation Yrotation Xrotation
						JOINT relbow
						{
							OFFSET -0.260127 -0.014369 -0.031269
							CHANNELS 3 Zrotation Yrotation Xrotation
							JOINT rwrist
							{
								OFFSET -0.269108 0.006794 -0.006027
								CHANNELS 3 Zrotation Yrotation Xrotation
								End Site
								{
									OFFSET 0.000000 0.000000 0.000000
								}
							}
						}
					}
				}
			}
		}
	}
}
MOTION
Frames: 17
Frame Time: 0.033333
-0.773380 0.686869 0.871344 96.943416 41.348238 178.105646 32.818321 22.748160 -70.093837 -7.002044 3.052225 41.662000 1.221223 5.882501 -28.575355 0.000000 -0.000000 0.000000 -9.435079 -15.541833 2.910303 1.715849 12.741492 14.418816 18.467868 -14.148587 35.123406 0.000000 -0.000000 0.000000 -10.266325 9.505620 26.784974 -3.295535 -13.183266 -10.169591 4.316939 -3.023437 -3.928669 -8.404108 -7.149843 -21.192637 7.119731 7.141606 -19.005896 9.933554 -36.263629 -6.109643 12.779529 -15.308310 -31.885744 21.600247 -15.892726 -35.991229 54.182583 -14.416250 -6.817137 -38.065717 24.090061 -26.549863 -21.789612 23.713649 -31.410022 -35.876650 31.482656 -44.576835 -30.239346 19.800487 -25.005643 
-0.693604 0.676505 0.897289 109.524637 43.329021 -167.448534 38.611133 25.766261 -62.637990 -2.165191 0.865239 26.620853 -2.589118 4.340282 -18.212748 0.000000 -0.000000 0.000000 -12.950733 -17.002076 6.698018 1.217425 14.053538 17.117584 16.973429 -13.283482 36.724283 0.000000 -0.000000 0.000000 -8.846298 8.157797 22.800215 -4.784142 -12.013566 -7.135639 4.503647 -2.001923 -7.505651 -9.345105 -14.407541 -19.675345 11.098169 7.872910 -21.207923 12.785065 -36.435739 -7.089125 8.901947 -14.603930 -33.402921 28.824191 -23.360959 -35.917028 61.055001 -15.159078 -4.878565 -45.318822 25.229759 -28.806420 -13.666827 18.631604 -33.666539 -36.711300 35.090855 -42.405652 -28.347134 25.130643 -17.664729 
-0.608892 0.664596 0.930357 121.140274 41.425374 -153.940708 42.119040 29.910541 -54.282542 2.506385 6.941939 5.948315 -13.813153 -0.803514 5.102173 0.000000 -0.000000 0.000000 -16.967433 -18.690044 11.061414 -0.250542 11.880915 17.854222 16.519206 -10.012630 39.195275 0.000000 -0.000000 0.000000 -7.042619 5.987643 18.407174 -7.197544 -10.538260 -3.195372 2.592084 -1.455848 -11.530620 -10.656264 -18.902786 -14.794775 15.300118 5.563775 -21.210619 11.270592 -34.338648 -14.602696 10.235666 -24.560773 -31.355417 30.393717 -25.632905 -26.511552 59.178511 -18.390211 -2.543061 -40.839607 26.437225 -27.212039 -15.943040 17.167200 -35.160702 -34.433204 36.081767 -36.430582 -31.621907 28.675614 -15.546123 
-0.525330 0.654644 0.960402 129.320554 37.282883 -142.692542 42.392024 33.929502 -49.878807 2.902354 12.375955 -6.781488 -20.170288 -0.936358 24.497394 0.000000 -0.000000 0.000000 -20.709810 -18.305904 14.728442 -1.081074 13.522046 16.608281 17.280702 -8.104305 40.643507 0.000000 -0.000000 0.000000 -6.577201 4.341819 13.583377 -7.243796 -10.973202 -2.246642 1.250203 -0.428337 -10.320478 -8.258274 -22.431355 -15.760975 15.576551 -0.644742 -17.674027 13.941420 -30.587950 -18.612704 10.193292 -29.061490 -29.273863 29.315494 -27.256397 -23.956402 60.267239 -20.009286 -1.713870 -40.056081 23.705313 -25.610103 -15.899694 15.805194 -34.594366 -34.449088 34.455916 -37.372072 -29.417442 31.367273 -11.159390 
-0.443355 0.648247 0.985860 135.378748 35.163348 -134.747472 48.643112 31.655525 -42.703032 3.389389 15.303764 0.930838 -14.979546 5.438434 18.057008 0.000000 -0.000000 0.000000 -25.652659 -15.324811 16.097757 -1.340154 18.235947 16.655274 14.720346 -9.253856 38.981862 0.000000 -0.000000 0.000000 -8.505351 4.292549 11.751642 -7.229956 -10.659290 -3.076254 1.417586 -0.221885 -11.546141 -11.865743 -25.296227 -12.796321 14.864788 0.794023 -19.812029 15.659689 -30.088575 -16.624319 10.822768 -29.418874 -31.620734 28.911887 -28.243829 -21.035230 61.629495 -20.237323 -2.817234 -39.531990 23.380795 -22.422688 -14.482580 12.807543 -34.000314 -34.357090 34.060785 -34.433021 -27.273338 32.475426 -6.843721 
-0.359282 0.644923 1.006854 140.538872 31.457322 -126.794959 50.704288 28.187270 -36.743848 3.466484 6.853196 3.007775 -15.335217 4.175515 15.486323 0.000000 -0.000000 0.000000 -29.363782 -14.855062 15.122247 -2.338245 17.026007 15.115769 13.930479 -10.699782 35.602062 0.000000 -0.000000 0.000000 -9.683105 3.723403 9.337528 -6.921002 -11.130966 -3.999517 0.946354 -1.446225 -11.345588 -7.715882 -24.452863 -16.393459 16.445320 -2.955160 -18.480443 14.903295 -28.829217 -16.823061 15.358122 -30.560245 -32.084425 27.802161 -29.018582 -18.956922 62.870836 -21.888984 -4.414686 -35.876287 22.227033 -22.498729 -14.024235 13.401651 -31.452813 -35.292787 32.539236 -31.906882 -28.326617 34.130207 -5.203329 
-0.275508 0.643094 1.022291 145.577007 27.359349 -119.751167 50.335205 25.179212 -30.202170 4.243066 2.671023 0.435454 -14.775570 4.018209 10.411846 0.000000 -0.000000 0.000000 -32.984836 -15.437240 14.199301 -3.164258 13.555671 11.125780 14.493168 -12.290162 32.564385 0.000000 -0.000000 0.000000 -10.270399 2.986304 7.374880 -6.279372 -11.270829 -5.177096 1.038439 -2.120620 -11.830773 -5.497553 -24.807241 -16.219882 15.789613 -4.785654 -19.613527 12.635152 -27.635860 -16.447970 20.564502 -31.621256 -31.977880 25.237431 -28.878956 -16.722626 64.848548 -22.616200 -5.514803 -29.930462 21.670292 -21.589769 -17.276907 14.824878 -29.344604 -33.853184 30.744428 -30.282576 -32.771197 34.540379 -6.636683 
-0.195601 0.639943 1.032968 150.942928 22.323299 -113.207892 49.332298 24.174852 -24.448261 4.526512 3.795872 -1.848754 -13.998390 4.899118 7.158493 0.000000 -0.000000 0.000000 -35.037320 -16.354092 11.904860 -4.115706 11.048384 7.459215 14.250956 -12.977694 29.653400 0.000000 -0.000000 0.000000 -9.318559 2.028908 5.299544 -5.505243 -10.910355 -7.571115 1.475466 -1.604581 -10.500494 -5.442218 -24.701916 -16.884748 15.416683 -6.608613 -19.488866 14.403380 -26.288205 -16.179642 20.993905 -31.505944 -33.092696 25.589158 -28.498840 -16.804434 66.115389 -23.747449 -5.960977 -28.824806 20.114696 -19.200171 -17.739519 13.850981 -30.621812 -32.788715 28.009990 -29.887878 -32.518957 34.260316 -5.833689 
-0.117740 0.637798 1.041558 156.098129 17.198902 -107.864195 47.561839 23.179501 -19.216546 4.787485 4.316543 -1.884925 -13.409886 7.061425 6.199701 0.000000 -0.000000 0.000000 -37.035975 -16.807233 8.849841 -4.295862 8.955575 4.750256 13.615279 -14.628933 26.918031 0.000000 -0.000000 0.000000 -8.397543 0.997484 3.235092 -4.739424 -10.324681 -8.420545 1.559120 -1.899764 -10.084876 -4.053426 -24.190129 -17.215180 14.791768 -6.949717 -19.331271 14.852686 -25.134862 -17.299561 24.918122 -31.772491 -33.752944 22.769519 -26.565490 -14.776164 67.776290 -24.911436 -5.817958 -25.981789 19.844141 -17.944409 -19.975582 14.413896 -30.620817 -30.998374 24.042189 -30.841533 -34.616108 33.201660 -7.065571 
-0.041406 0.637903 1.047513 161.856159 11.299593 -103.968691 46.585869 20.677359 -13.201618 5.337202 1.650267 -0.691410 -14.831582 8.605657 8.231186 0.000000 -0.000000 0.000000 -38.431217 -16.932148 4.982492 -4.396176 6.080668 2.947763 13.126092 -15.376473 25.990233 0.000000 -0.000000 0.000000 -6.039844 -0.251937 1.779825 -3.656491 -8.958107 -8.030200 1.947386 -2.462808 -10.276058 -3.137220 -22.935831 -18.538359 13.695691 -8.174700 -19.002638 17.990181 -22.359432 -17.510675 24.310318 -30.025254 -33.474138 23.212215 -25.078692 -15.531681 67.524209 -25.933418 -5.933259 -26.024173 19.103041 -20.453364 -20.064230 18.179631 -29.867398 -28.527172 20.095464 -31.002056 -34.525399 32.062147 -7.652796 
0.032959 0.639508 1.051257 167.982051 5.107007 -101.518592 45.224963 17.235951 -6.941895 5.612812 -2.704469 0.635057 -16.814065 10.374514 12.146948 0.000000 -0.000000 0.000000 -39.731263 -17.010251 -0.135650 -4.300355 4.707179 2.862946 12.308964 -16.483291 25.178253 0.000000 -0.000000 0.000000 -2.994624 -1.613821 1.479430 -2.734796 -7.488139 -9.027071 2.101221 -2.318472 -9.416243 -3.158584 -21.053639 -19.451767 12.038876 -8.787270 -19.177770 19.858387 -20.439521 -18.019881 26.816367 -28.510257 -33.534885 20.758085 -22.074075 -14.138451 69.490601 -26.314403 -6.796981 -25.714740 19.004617 -21.716901 -20.834750 21.505997 -28.671452 -23.996463 15.880509 -29.626128 -44.672953 31.126449 -15.119676 
0.106032 0.641636 1.052663 174.142402 -1.284746 -100.331838 42.789068 13.404364 -1.181337 5.527283 -8.065725 1.496269 -18.336788 11.751728 15.465809 0.000000 -0.000000 0.000000 -40.961690 -17.068447 -6.135525 -4.440670 2.766289 3.373637 11.662336 -17.950194 23.717780 0.000000 -0.000000 0.000000 0.172549 -2.552096 1.428715 -1.745636 -5.804020 -9.989057 2.898689 -1.624228 -8.318255 -2.775576 -19.852765 -20.306188 9.919356 -10.986397 -18.805359 21.429801 -19.231130 -19.164503 28.540989 -27.272192 -33.982080 17.700550 -18.447633 -11.484038 69.765598 -27.238495 -7.096251 -25.616623 19.978929 -23.202899 -21.974688 25.362536 -28.860862 -20.527370 11.252368 -28.497634 -61.313410 29.256198 -26.741993 
0.177606 0.642712 1.052550 179.728176 -7.834012 -100.450200 39.464570 11.078349 3.095822 5.341260 -11.848443 2.021504 -20.229878 10.877869 18.016113 0.000000 -0.000000 0.000000 -42.561538 -18.390950 -12.140917 -4.523524 0.093702 3.940199 11.400232 -17.081080 20.916531 0.000000 -0.000000 0.000000 2.110462 -2.621928 2.596087 0.573751 -4.567252 -10.848243 4.850507 -1.793559 -7.771581 -2.632359 -15.852422 -22.283511 6.064292 -14.968480 -16.516464 21.890449 -17.256053 -20.040566 29.432956 -26.983381 -34.129706 17.036035 -14.867996 -11.545735 65.055464 -28.844716 -4.513828 -22.441269 20.618584 -24.396050 -24.224908 31.770322 -28.910090 -23.717483 9.350471 -32.601033 -64.730845 27.498855 -27.878955 
0.245354 0.639835 1.052745 -174.718352 -15.370647 -101.964962 36.988644 10.371249 6.663754 5.174041 -14.180168 1.759012 -21.756598 10.150335 18.872006 0.000000 -0.000000 0.000000 -43.462449 -20.246184 -17.595353 -4.442513 -1.667117 3.510738 10.783006 -16.977270 18.496580 0.000000 -0.000000 0.000000 5.734739 -3.271673 2.810579 3.022034 -3.422093 -10.555458 6.301244 -1.802375 -7.327389 -2.023958 -16.204865 -19.537257 4.534934 -13.957217 -18.150765 22.214134 -16.774354 -20.601450 28.762252 -25.421633 -35.432974 18.041850 -15.621845 -12.626886 60.616430 -28.445486 -1.556027 -23.259255 21.074150 -22.113834 -24.180635 32.062358 -30.120758 -24.153451 11.826803 -33.362563 -68.489197 25.792006 -28.782108 
0.312165 0.637066 1.053729 -169.238848 -22.166136 -104.961897 33.526566 9.014947 9.399163 4.821252 -14.865001 2.031944 -21.455263 9.712021 16.925621 0.000000 -0.000000 0.000000 -45.723655 -21.660563 -23.048221 -4.785159 -3.867919 3.996024 10.795147 -16.369978 15.629359 0.000000 -0.000000 0.000000 9.569556 -4.623160 5.253886 3.776400 -2.098108 -11.831535 7.779442 -1.644795 -5.631739 -1.678265 -13.121885 -22.546808 1.927283 -14.811285 -15.634738 21.582385 -15.539339 -21.946626 29.326126 -26.244443 -37.050598 22.812785 -18.427548 -18.612484 47.744182 -28.087100 0.780661 -21.931433 21.568936 -23.778313 -27.172189 36.853629 -31.825852 -24.352930 9.714171 -35.039983 -65.700128 27.366271 -26.076421 
0.382546 0.633382 1.053630 -162.972999 -28.462415 -109.777699 30.049297 8.377498 11.544550 4.452066 -14.822582 2.715292 -20.704052 10.167226 15.988502 0.000000 -0.000000 0.000000 -48.095044 -23.254828 -28.924004 -5.046903 -5.247558 5.072557 11.300598 -15.251903 10.166981 0.000000 -0.000000 0.000000 13.416894 -5.839127 8.324903 3.658344 0.011586 -12.823430 8.075587 -1.788477 -4.895480 -0.759526 -12.557754 -23.432620 1.434815 -15.192232 -14.584733 21.896193 -15.081117 -21.980877 29.489279 -27.970954 -38.441488 26.783456 -21.816963 -25.668578 43.471688 -27.116714 -2.001529 -21.398034 22.940994 -23.728685 -28.375685 37.964115 -32.513238 -23.987238 7.953896 -37.745611 -65.192074 29.107148 -24.333962 
0.454584 0.627500 1.051481 -157.051349 -34.299040 -115.827444 26.591727 8.717872 12.425552 4.240951 -13.863633 3.806844 -20.021296 12.085645 16.266209 0.000000 -0.000000 0.000000 -50.984707 -25.375151 -33.753378 -5.193350 -5.387390 5.661249 11.513279 -15.124825 6.497902 0.000000 -0.000000 0.000000 15.973724 -6.837014 11.139168 4.327650 1.185181 -13.628514 7.127741 -1.601185 -3.064104 -0.915589 -11.361376 -24.208617 1.231450 -16.033591 -14.368587 23.798451 -14.638363 -21.065446 28.554685 -29.078969 -38.580449 28.004079 -23.652699 -25.711538 45.848115 -27.125007 -5.239929 -21.784629 21.751190 -21.255536 -28.781638 37.333156 -35.012472 -23.738507 7.108945 -38.283997 -67.719331 27.705993 -24.349150 
